<?xml version="1.0" standalone="no"?>
<!DOCTYPE svg PUBLIC "-//W3C//DTD SVG 20010904//EN"
 "http://www.w3.org/TR/2001/REC-SVG-20010904/DTD/svg10.dtd">
<svg version="1.0" xmlns="http://www.w3.org/2000/svg"
 width="236.000000pt" height="236.000000pt" viewBox="0 0 236.000000 236.000000"
 preserveAspectRatio="xMidYMid meet">

<g transform="translate(0.000000,236.000000) scale(0.100000,-0.100000)"
fill="#000000" stroke="none">
<path d="M825 2075 c-269 -28 -429 -89 -449 -171 -4 -15 0 -48 10 -78 14 -44
36 -70 154 -186 230 -227 250 -263 233 -430 -8 -86 -15 -109 -60 -201 -64
-131 -88 -202 -95 -282 l-3 -27 -41 20 c-95 47 -132 122 -83 166 57 51 118
154 91 154 -14 0 -74 -31 -121 -63 -66 -45 -98 -133 -72 -199 16 -42 84 -99
166 -139 143 -70 369 -101 577 -79 197 21 321 60 414 130 82 62 107 147 64
218 -16 27 -26 33 -48 30 -29 -3 -30 -6 -17 -83 6 -35 3 -45 -20 -74 -15 -17
-54 -45 -86 -61 -61 -31 -191 -70 -234 -70 l-26 0 42 62 c64 94 190 220 329
328 186 146 320 291 320 347 0 25 -38 43 -50 23 -4 -7 -13 -9 -19 -6 -6 4 -40
1 -74 -7 -116 -28 -286 -39 -502 -35 -210 5 -267 14 -279 45 -10 24 29 31 139
24 61 -3 137 -5 170 -4 33 1 106 4 162 5 57 2 103 6 103 10 0 4 20 5 45 2 29
-3 45 -1 45 6 0 6 10 8 24 4 14 -3 31 -2 38 2 7 5 18 10 23 11 6 1 35 9 65 18
30 8 64 15 77 15 12 0 24 4 27 9 3 5 18 12 33 16 59 14 160 72 204 116 66 67
77 142 23 155 -38 10 -54 -2 -54 -37 0 -18 -3 -29 -7 -26 -3 4 -12 2 -18 -3
-16 -14 -45 -2 -46 19 -1 9 -2 48 -3 88 -1 80 -18 108 -86 143 -62 31 -219 67
-370 85 -30 4 -68 9 -85 12 -80 12 -508 11 -630 -2z m654 -159 c36 -8 92 -18
124 -21 31 -4 57 -10 57 -14 0 -14 -226 -44 -324 -44 -148 1 -427 13 -437 19
-4 2 -52 6 -104 8 -53 3 -99 7 -103 11 -12 12 22 24 35 13 10 -8 24 -6 51 6
43 19 105 23 207 12 60 -6 67 -5 50 6 -18 12 -16 13 25 18 86 10 353 1 419
-14z"/>
<path d="M692 498 c-19 -19 -14 -49 17 -104 64 -110 243 -264 290 -249 22 7
23 8 65 190 l26 110 -21 18 c-17 13 -40 17 -108 17 -81 0 -176 10 -231 24 -15
4 -30 2 -38 -6z"/>
</g>
</svg>
