<?xml version="1.0" encoding="UTF-8" standalone="no"?>
<svg
   viewBox="0 0 640 512"
   version="1.1"
   id="svg4"
   sodipodi:docname="code-solid.svg"
   inkscape:version="1.1.2 (0a00cf5339, 2022-02-04)"
   xmlns:inkscape="http://www.inkscape.org/namespaces/inkscape"
   xmlns:sodipodi="http://sodipodi.sourceforge.net/DTD/sodipodi-0.dtd"
   xmlns="http://www.w3.org/2000/svg"
   xmlns:svg="http://www.w3.org/2000/svg">
  <defs
     id="defs8" />
  <sodipodi:namedview
     id="namedview6"
     pagecolor="#ffffff"
     bordercolor="#666666"
     borderopacity="1.0"
     inkscape:pageshadow="2"
     inkscape:pageopacity="0.0"
     inkscape:pagecheckerboard="0"
     showgrid="false"
     inkscape:zoom="0.38183594"
     inkscape:cx="-284.15345"
     inkscape:cy="-252.72634"
     inkscape:window-width="1850"
     inkscape:window-height="1016"
     inkscape:window-x="0"
     inkscape:window-y="0"
     inkscape:window-maximized="1"
     inkscape:current-layer="svg4" />
  <!--! Font Awesome Pro 6.1.1 by @fontawesome - https://fontawesome.com License - https://fontawesome.com/license (Commercial License) Copyright 2022 Fonticons, Inc. -->
  <path
     d="M 381.39207,118.22024 301.31824,398.4849 c -3.06533,10.63481 -14.13804,16.76546 -24.77284,13.76269 -10.63481,-3.06533 -16.76546,-14.13804 -13.76269,-24.77284 L 342.85654,107.2226 c 3.06532,-10.631055 14.13803,-16.786731 24.77284,-13.74893 10.63481,3.037176 16.76546,14.11802 13.76269,24.74657 z m 64.93487,50.42774 70.0646,70.0646 c 7.81971,7.81971 7.81971,20.45637 0,28.27608 l -70.0646,70.0646 c -7.81971,7.81971 -20.45636,7.81971 -28.27607,0 -7.81971,-7.81971 -7.81971,-20.45636 0,-28.27607 l 55.86401,-55.92657 -55.86401,-55.92657 c -7.81971,-7.8197 -7.81971,-20.45636 0,-28.27607 7.81971,-7.81971 20.45636,-7.81971 28.27607,0 z m -220.20303,28.27607 -55.89529,55.92657 55.89529,55.92657 c 7.81971,7.81971 7.81971,20.45636 0,28.27607 -7.81971,7.81971 -20.45636,7.81971 -28.27607,0 l -70.08212,-70.0646 c -7.81721,-7.81971 -7.81721,-20.45637 0,-28.27608 l 70.08212,-70.0646 c 7.81971,-7.81971 20.45636,-7.81971 28.27607,0 7.81971,7.81971 7.81971,20.45637 0,28.27607 z"
     id="path2"
     style="stroke-width:0.625577;fill:#d13d29" />
</svg>
