<?xml version="1.0" standalone="no"?>
<!DOCTYPE svg PUBLIC "-//W3C//DTD SVG 20010904//EN"
 "http://www.w3.org/TR/2001/REC-SVG-20010904/DTD/svg10.dtd">
<svg version="1.0" xmlns="http://www.w3.org/2000/svg"
 width="453.000000pt" height="453.000000pt" viewBox="0 0 453.000000 453.000000"
 preserveAspectRatio="xMidYMid meet">

<g transform="translate(0.000000,453.000000) scale(0.100000,-0.100000)"
fill="#000000" stroke="none">
<path d="M2255 3200 c-3 -5 -3 -14 0 -20 3 -5 0 -8 -7 -5 -11 4 -118 -130
-118 -148 0 -3 -11 -22 -24 -41 -29 -43 -97 -209 -103 -253 -3 -23 -1 -33 9
-33 10 0 9 -3 -2 -11 -13 -9 -13 -10 0 -6 8 2 14 12 14 21 -2 23 5 20 16 -6
l9 -23 7 23 c5 18 9 20 15 10 7 -11 9 -11 9 1 0 11 3 11 15 1 13 -11 14 -10 8
6 -6 17 -5 17 10 5 14 -11 18 -11 23 3 4 10 14 15 30 12 14 -3 24 0 24 7 0 7
4 6 10 -3 5 -8 10 -10 10 -3 0 12 17 12 38 0 6 -5 12 -5 12 0 0 4 14 8 30 8
17 0 30 -4 30 -10 0 -5 5 -3 10 5 5 8 10 10 10 4 0 -11 7 -13 60 -16 17 -1 30
-5 30 -10 0 -4 7 -5 15 -2 9 4 15 0 15 -7 0 -11 3 -11 10 1 7 12 10 12 10 1 0
-7 6 -11 15 -7 8 3 19 -2 24 -12 21 -36 11 55 -15 134 -37 115 -158 324 -187
324 -4 0 -6 4 -3 9 3 4 -2 15 -12 23 -28 24 -40 29 -47 18z"/>
<path d="M2910 2673 c-68 -4 -179 -24 -185 -33 -3 -5 -12 -7 -20 -3 -8 3 -15
0 -15 -7 0 -6 -4 -9 -9 -6 -17 11 -20 -22 -3 -36 13 -11 14 -11 7 1 -5 10 -4
12 3 7 7 -4 12 -14 12 -22 0 -8 5 -12 10 -9 6 3 10 -1 10 -9 0 -9 6 -16 13
-16 14 0 60 -50 65 -71 2 -8 8 -18 14 -24 8 -7 8 -5 3 5 -8 13 -7 13 8 1 18
-14 23 -26 8 -17 -5 3 -12 -1 -15 -10 -3 -8 -2 -12 4 -9 6 3 10 1 10 -5 0 -6
4 -8 10 -5 6 4 7 -1 3 -11 -5 -13 -3 -15 7 -9 9 5 11 4 6 -3 -4 -7 4 -22 18
-35 16 -15 22 -27 16 -33 -6 -6 -5 -15 1 -24 9 -12 10 -12 5 3 -3 11 -2 16 4
12 14 -9 12 -42 -2 -48 -7 -3 -4 -6 6 -6 11 -1 16 -4 13 -8 -4 -3 1 -16 10
-27 15 -17 15 -19 1 -8 -11 9 -18 10 -23 2 -3 -5 -1 -10 5 -10 6 0 8 -4 5 -10
-3 -5 -1 -10 5 -10 6 0 9 -4 5 -9 -3 -5 -2 -12 3 -14 11 -8 122 100 163 158
46 65 112 185 102 185 -4 0 -2 4 5 8 11 8 16 21 26 70 1 7 8 18 14 24 7 7 12
18 12 25 0 16 -38 36 -55 29 -8 -3 -17 -2 -19 3 -3 4 -36 9 -73 10 -37 2 -86
4 -108 4 -22 1 -60 1 -85 0z m330 -50 c0 -10 -4 -14 -8 -8 -4 6 -11 13 -16 18
-5 4 -2 7 7 7 10 0 17 -8 17 -17z"/>
<path d="M1357 2663 c-25 -4 -27 -8 -23 -34 4 -26 2 -28 -15 -19 -23 13 -23
16 0 -47 26 -70 104 -212 135 -246 14 -16 26 -30 26 -33 0 -3 10 -18 21 -34
14 -18 27 -26 37 -22 10 3 13 1 8 -6 -3 -6 -2 -13 3 -16 5 -4 11 4 13 16 2 13
9 22 16 20 10 -2 11 4 7 20 -7 23 -7 23 9 3 17 -23 21 -13 6 15 -13 25 4 35
21 13 12 -14 12 -16 -1 -8 -8 4 -12 4 -7 0 4 -5 14 -10 23 -11 12 -2 13 1 3
12 -11 13 -6 18 14 15 5 -1 6 3 2 9 -3 6 -10 8 -15 5 -5 -3 -12 0 -16 6 -4 8
-3 9 5 5 7 -4 15 2 20 16 9 21 10 21 11 3 1 -14 3 -16 6 -5 14 41 38 90 45 90
4 0 18 14 30 32 13 17 17 28 10 24 -10 -6 -10 -3 1 13 7 12 16 21 21 21 4 0 5
-5 1 -12 -5 -7 -3 -8 5 -4 7 5 10 13 8 20 -6 16 20 40 26 23 3 -7 6 -6 6 4 1
9 8 22 16 29 8 7 12 17 8 24 -4 6 2 4 12 -4 17 -14 17 -14 7 5 -21 41 -110 59
-302 61 -96 1 -188 0 -203 -3z m161 -395 c-2 -8 7 -13 21 -12 22 1 23 0 6 -12
-15 -12 -20 -11 -31 4 -7 9 -10 20 -8 24 8 12 14 9 12 -4z"/>
<path d="M1310 2646 c0 -8 4 -17 9 -20 5 -4 7 3 4 14 -6 23 -13 26 -13 6z"/>
<path d="M1573 2223 c1 -17 4 -19 14 -11 15 12 18 22 4 14 -5 -4 -11 0 -14 6
-3 7 -4 3 -4 -9z"/>
<path d="M2920 2011 c0 -7 -5 -9 -12 -5 -7 4 -8 3 -4 -5 4 -6 12 -9 17 -6 13
9 11 -12 -5 -44 -8 -15 -17 -39 -19 -52 -2 -13 -9 -37 -15 -52 -7 -16 -12 -32
-12 -36 0 -5 -7 -14 -16 -22 -8 -7 -13 -21 -11 -30 3 -10 2 -18 -2 -17 -21 2
-31 -4 -31 -22 0 -10 -6 -23 -12 -27 -7 -4 -13 -15 -13 -23 0 -8 -14 -24 -32
-35 -18 -11 -32 -27 -32 -35 0 -11 2 -11 6 -2 4 10 8 10 19 1 8 -6 14 -17 14
-23 0 -6 -5 -4 -11 4 -9 12 -10 11 -6 -7 3 -15 1 -20 -9 -16 -8 3 -14 0 -14
-7 0 -6 -4 -8 -10 -5 -5 3 -10 2 -10 -3 0 -15 30 -23 30 -9 0 7 5 4 11 -6 6
-9 15 -15 20 -11 5 3 15 1 22 -4 25 -21 258 -32 362 -17 33 5 63 8 68 7 4 -1
7 3 7 9 0 5 4 8 9 5 19 -12 19 27 0 72 -91 206 -167 317 -286 416 -15 12 -23
15 -23 7z m-3 -103 c-3 -8 -6 -5 -6 6 -1 11 2 17 5 13 3 -3 4 -12 1 -19z"/>
<path d="M1574 1978 l-19 -23 25 20 c14 11 27 21 29 22 2 2 0 3 -6 3 -5 0 -18
-10 -29 -22z"/>
<path d="M1576 1953 c-4 -5 -11 -8 -14 -8 -4 0 -19 -9 -35 -19 -23 -16 -25
-21 -15 -34 11 -13 11 -14 0 -8 -15 9 -52 -20 -52 -41 0 -7 -3 -13 -8 -13 -8
0 -53 -69 -55 -85 0 -5 -9 -19 -19 -30 -10 -10 -16 -25 -13 -33 2 -7 1 -11 -4
-8 -8 5 -38 -72 -33 -86 1 -5 -2 -8 -8 -8 -5 0 -7 -7 -3 -16 3 -8 11 -13 18
-11 6 3 12 -1 12 -9 0 -7 -4 -11 -8 -9 -10 7 -39 -5 -39 -15 0 -13 38 -18 51
-6 9 8 10 8 6 0 -5 -8 16 -16 60 -24 114 -22 420 5 431 38 1 5 11 8 21 5 10
-2 24 4 31 14 12 15 12 16 0 6 -19 -18 -27 -16 -33 7 -3 11 -12 20 -21 20 -9
0 -16 5 -16 11 0 5 6 7 13 4 6 -4 3 1 -8 10 -11 9 -27 14 -36 12 -10 -3 -16 2
-15 12 1 9 -5 15 -14 13 -8 -2 -12 0 -7 4 4 4 -3 19 -15 33 -19 21 -20 23 -3
11 19 -14 19 -14 6 3 -7 9 -21 17 -30 17 -14 0 -14 2 -1 10 12 8 12 10 -5 10
-17 0 -17 2 -5 10 10 6 11 10 3 10 -7 0 -13 5 -13 12 0 6 -9 21 -20 33 -11 12
-23 32 -25 45 -2 12 -7 25 -11 29 -4 3 -5 -1 -2 -10 4 -9 1 -16 -7 -16 -7 0
-10 8 -7 19 3 12 -1 18 -12 18 -9 0 -16 6 -16 13 0 8 -4 7 -10 -3 -6 -9 -10
-10 -10 -3 0 6 5 15 10 18 6 3 10 12 10 18 0 8 -3 8 -9 -1 -7 -11 -9 -11 -14
1 -3 8 0 20 6 26 6 6 9 11 6 11 -3 0 -9 -3 -13 -7z m-13 -26 c3 -8 -1 -14 -8
-14 -7 0 -11 6 -8 14 3 7 6 13 8 13 2 0 5 -6 8 -13z m255 -342 c-3 -3 -9 2
-12 12 -6 14 -5 15 5 6 7 -7 10 -15 7 -18z"/>
<path d="M2701 1592 c0 -13 -5 -21 -10 -18 -5 3 -11 -4 -14 -16 l-6 -21 20 20
c12 12 19 28 16 39 -4 16 -5 15 -6 -4z"/>
<path d="M1300 1550 c0 -5 5 -10 11 -10 5 0 7 5 4 10 -3 6 -8 10 -11 10 -2 0
-4 -4 -4 -10z"/>
<path d="M2538 1483 c-21 -5 -24 -33 -4 -33 7 0 16 9 19 20 3 11 4 19 4 19 -1
-1 -10 -3 -19 -6z"/>
<path d="M2008 1469 c-7 -17 21 -123 55 -205 27 -68 94 -185 129 -226 13 -15
31 -38 40 -52 26 -36 53 -39 69 -7 8 14 30 43 49 63 19 20 46 58 60 85 14 26
32 59 41 73 25 37 91 219 84 230 -4 6 -18 4 -35 -5 l-28 -15 5 30 c2 17 0 30
-6 30 -6 0 -11 -6 -11 -12 0 -9 -4 -8 -10 2 -9 13 -10 13 -11 0 -1 -8 -1 -18
0 -22 0 -4 -8 -6 -19 -5 -11 1 -20 5 -20 10 0 5 -7 3 -16 -4 -20 -16 -46 -18
-56 -4 -5 7 -8 6 -8 -1 0 -12 -99 -12 -118 0 -7 4 -12 1 -12 -6 0 -8 -3 -9 -8
-3 -4 6 -18 12 -32 14 -14 1 -33 8 -44 13 -14 8 -17 7 -10 -4 6 -11 5 -11 -8
0 -13 10 -17 10 -21 0 -4 -9 -6 -8 -6 3 -1 23 -31 33 -32 11 0 -14 -2 -14 -8
2 -6 15 -9 16 -13 5z"/>
</g>
</svg>
